Coordinates
version=1
nRows=6
nColumns=36
inDegrees=yes

Units are S.I. units (second, meters, Newtons, ...)
If the header above contains a line with 'inDegrees', this indicates whether rotational values are in degrees (yes) or radians (no).

endheader
time	pelvis_tilt	pelvis_list	pelvis_rotation	pelvis_tx	pelvis_ty	pelvis_tz	hip_flexion_r	hip_adduction_r	hip_rotation_r	knee_angle_r	knee_angle_r_beta	ankle_angle_r	subtalar_angle_r	mtp_angle_r	hip_flexion_l	hip_adduction_l	hip_rotation_l	knee_angle_l	knee_angle_l_beta	ankle_angle_l	subtalar_angle_l	mtp_angle_l	lumbar_extension	lumbar_bending	lumbar_rotation	arm_flex_r	arm_add_r	arm_rot_r	elbow_flex_r	pro_sup_r	arm_flex_l	arm_add_l	arm_rot_l	elbow_flex_l	pro_sup_l
      4.40000000	      1.20256928	     -1.42696946	    -11.72965003	      1.64450830	      1.02713648	      0.08526996	      0.11889822	     -7.16663191	     -4.30796501	      6.67060841	      0.11642408	      4.24922692	     -7.36921543	     -7.49999987	     -3.57912261	     -3.80779290	     -4.21976293	      5.48099313	      0.09566138	     10.97106168	     -6.13049100	     -7.49999987	     -9.78231735	     -0.73783413	      2.95499038	    177.19925532	   -165.76337534	    181.15875372	     10.76237890	     91.92362621	    355.65681795	    -15.31517406	    348.66861587	     16.55652888	     91.88088675
      4.41666670	      1.41226118	     -1.33907385	    -11.69996608	      1.64377548	      1.02452717	      0.08492633	     -0.10096815	     -7.30302269	     -4.10055009	      6.68459497	      0.11666819	      4.62328455	     -7.50341223	     -7.49999987	     -3.81863147	     -3.62783308	     -4.19163020	      5.39483832	      0.09415769	     10.92396176	     -6.18781386	     -7.49999987	    -10.05734451	     -0.85611474	      2.69508930	    177.08672100	   -165.67300485	    180.75707007	     10.39422571	     93.11640311	    355.93233052	    -15.63965148	    347.06008203	     15.10687863	     93.23056692
      4.43333330	      1.46031349	     -1.27058658	    -11.70126454	      1.64763615	      1.02754833	      0.08196360	     -0.20432827	     -7.42986673	     -4.02162117	      6.68369054	      0.11665241	      4.73834859	     -7.52617792	     -7.49999987	     -3.86707860	     -3.47832215	     -4.16732943	      5.42008627	      0.09459835	     10.87414607	     -6.18823587	     -7.49999987	    -10.17858496	     -0.90094955	      2.67595379	    176.74435729	   -165.44694928	    180.74413967	     10.24408270	     93.12256550	    355.61208601	    -15.91657486	    347.00710176	     14.91780531	     93.22701828
      4.45000000	      1.64412904	     -1.02544952	    -11.72491118	      1.64294158	      1.02492670	      0.07768447	     -0.35480801	     -7.77651295	     -3.80597131	      6.69613864	      0.11686967	      5.22080871	     -7.68128566	     -7.49999987	     -4.07883935	     -3.07973994	     -4.11679315	      5.26637151	      0.09191552	     10.63808376	     -6.28486476	     -7.49999987	    -10.30486147	     -1.23900336	      2.31289982	    176.51821240	   -165.35902028	    180.83902057	     10.43964994	     93.21863726	    355.60345238	    -16.21965034	    346.89325861	     14.54952578	     93.27891527
      4.46666670	      1.73284863	     -0.92536826	    -11.63813979	      1.63905715	      1.03021145	      0.08038523	     -0.38478571	     -7.91419239	     -3.77443612	      6.77980300	      0.11832989	      5.42601960	     -7.82460079	     -7.49999987	     -4.02248671	     -2.91465502	     -3.91118719	      5.30866606	      0.09265370	     10.29386132	     -6.78191967	     -7.49999987	    -10.61407331	     -1.37019134	      2.07994132	    175.87117553	   -165.05711450	    181.94566662	     12.06838833	     94.21425053	    356.03496811	    -16.37970477	    346.64758148	     13.80036195	     94.32959347
      4.48333330	      1.61748243	     -0.80256115	    -11.46101124	      1.63875313	      1.03063621	      0.08005514	     -0.20697350	     -8.00969468	     -3.78027094	      6.86482896	      0.11981387	      5.62176028	     -7.99136641	     -7.49999987	     -3.68436022	     -2.81478808	     -3.96164550	      5.39045619	      0.09408121	     10.21886810	     -6.79078381	     -7.49999987	    -10.73382351	     -1.50631584	      1.40027866	    175.83455430	   -165.00489087	    182.84007527	     12.86872530	     92.95776173	    355.98999141	    -16.59747171	    346.61272732	     13.70566325	     93.78275904
